# xmcd
#
# Track frame offsets:
#	150
#	17089
#	33472
#	48219
#	65575
#	79786
#	96574
#	115812
#	129288
#	161507
#	170907
#	198772
#
# Disc length: 3889 seconds
#
# Revision: 1
# Processed by: cddbd v1.5.1PL0 Copyright (c) Steve Scherf et al.
# Submitted via: audiograbber 1.83.01
#
DISCID=9c0f2f0c
DTITLE=Ernst Molden - Haus des Meeres
DYEAR=2005
DGENRE=Alternative
TTITLE0=die flache hand des lebens
TTITLE1=verrückter alter sommer
TTITLE2=landflucht
TTITLE3=mann mit sieben ecken
TTITLE4=über die mauer
TTITLE5=mein bruder verläßt das land
TTITLE6=der ganz ganz lange zug
TTITLE7=leopoldsbergblues
TTITLE8=haus des meeres
TTITLE9=hochzeitstag
TTITLE10=männer unter meinen freunden
TTITLE11=Daten-CD
EXTD=
EXTT0=
EXTT1=
EXTT2=
EXTT3=
EXTT4=
EXTT5=
EXTT6=
EXTT7=
EXTT8=
EXTT9=
EXTT10=
EXTT11=
PLAYORDER=
